<svg xmlns="http://www.w3.org/2000/svg" width="1200" height="760" viewBox="0 0 1200 760" role="img" aria-labelledby="title desc">
  <title id="title">ClinSight AI patient insight product screen</title>
  <desc id="desc">A stylized screenshot of a patient chart with grounded summary, citations, care gaps, consistency checks, and hallucination evaluation.</desc>
  <rect width="1200" height="760" fill="#f4efe4"/>
  <rect x="64" y="48" width="1072" height="150" rx="24" fill="#fffaf1" stroke="#d9d0c2"/>
  <text x="96" y="92" fill="#0f766e" font-family="Arial" font-size="18" font-weight="700">Patient Chart</text>
  <text x="96" y="142" fill="#14211b" font-family="Arial" font-size="44" font-weight="700">John Doe</text>
  <text x="96" y="176" fill="#5e685f" font-family="Arial" font-size="20">FHIR ID patient-001 • male • 1968-04-10</text>
  <rect x="64" y="230" width="640" height="452" rx="18" fill="#fffaf1" stroke="#d9d0c2"/>
  <text x="96" y="276" fill="#5e685f" font-family="Arial" font-size="16" font-weight="700">GROUNDED AI SUMMARY</text>
  <text x="96" y="314" fill="#14211b" font-family="Arial" font-size="30" font-weight="700">Patient snapshot</text>
  <rect x="96" y="346" width="560" height="88" rx="14" fill="#ffffff" stroke="#d9d0c2"/>
  <text x="120" y="382" fill="#14211b" font-family="Arial" font-size="19">Type 2 diabetes mellitus is documented as active.</text>
  <rect x="120" y="398" width="134" height="26" rx="13" fill="#d7f3ed"/>
  <text x="136" y="417" fill="#0d514c" font-family="Arial" font-size="14">Condition #2</text>
  <rect x="96" y="456" width="560" height="88" rx="14" fill="#ffffff" stroke="#d9d0c2"/>
  <text x="120" y="492" fill="#14211b" font-family="Arial" font-size="19">Blood pressure panel was recorded as 152/96.</text>
  <rect x="120" y="508" width="146" height="26" rx="13" fill="#d7f3ed"/>
  <text x="136" y="527" fill="#0d514c" font-family="Arial" font-size="14">Observation #1</text>
  <rect x="96" y="566" width="560" height="70" rx="14" fill="#ffffff" stroke="#d9d0c2"/>
  <text x="120" y="607" fill="#14211b" font-family="Arial" font-size="19">Metformin 500 MG Oral Tablet has status active.</text>
  <rect x="740" y="230" width="396" height="134" rx="18" fill="#fffaf1" stroke="#d9d0c2"/>
  <text x="772" y="274" fill="#5e685f" font-family="Arial" font-size="16" font-weight="700">CARE INTELLIGENCE</text>
  <text x="772" y="312" fill="#14211b" font-family="Arial" font-size="25" font-weight="700">Review A1c monitoring</text>
  <text x="772" y="342" fill="#5e685f" font-family="Arial" font-size="17">Diabetes documented; no A1c found.</text>
  <rect x="740" y="394" width="396" height="134" rx="18" fill="#fffaf1" stroke="#d9d0c2"/>
  <text x="772" y="438" fill="#5e685f" font-family="Arial" font-size="16" font-weight="700">CONSISTENCY ENGINE</text>
  <text x="772" y="476" fill="#14211b" font-family="Arial" font-size="25" font-weight="700">No conflicts detected</text>
  <text x="772" y="506" fill="#5e685f" font-family="Arial" font-size="17">Rule set found no status contradictions.</text>
  <rect x="740" y="558" width="396" height="124" rx="18" fill="#fffaf1" stroke="#d9d0c2"/>
  <text x="772" y="602" fill="#5e685f" font-family="Arial" font-size="16" font-weight="700">EVALUATION FRAMEWORK</text>
  <text x="772" y="640" fill="#14211b" font-family="Arial" font-size="25" font-weight="700">Hallucination risk: low</text>
  <text x="772" y="668" fill="#5e685f" font-family="Arial" font-size="17">Unsupported claims: 0 • unresolved citations: 0</text>
</svg>
